<svg xmlns="http://www.w3.org/2000/svg" enable-background="new 0 0 487.6 487.6" viewBox="0 0 487.6 487.6">
    <path d="M454.5 75.3H352.1v-24c0-28.3-23-51.3-51.3-51.3h-114c-28.3 0-51.3 23-51.3 51.3v23.9H33.1c-9.9 0-18 8.1-18 18s8.1 18 18 18h27.2V425c0 34.5 28.1 62.6 62.6 62.6h241.9c34.5 0 62.6-28.1 62.6-62.6V168.5c0-9.9-8.1-18-18-18s-18 8.1-18 18V425c0 14.6-11.9 26.6-26.6 26.6h-242c-14.6 0-26.6-11.9-26.6-26.6V111.3h358.3c10 0 18-8.1 18-18s-8.1-18-18-18zm-138.4-.1H171.5V51.3c0-8.4 6.9-15.3 15.3-15.3h114c8.5 0 15.3 6.9 15.3 15.3v23.9z"/>
    <path d="M167.2 150.5c-9.9 0-18 8.1-18 18v41.4c0 9.9 8.1 18 18 18s18-8.1 18-18v-41.4c0-9.9-8.1-18-18-18zM167.2 263.4c-9.9 0-18 8.1-18 18v112.9c0 9.9 8.1 18 18 18s18-8.1 18-18V281.4c0-9.9-8.1-18-18-18zM243.8 150.5c-9.9 0-18 8.1-18 18v122.2c0 9.9 8.1 18 18 18s18-8.1 18-18V168.5c0-9.9-8.1-18-18-18zM243.8 344.2c-9.9 0-18 8.1-18 18v32.1c0 9.9 8.1 18 18 18s18-8.1 18-18v-32.1c0-9.9-8.1-18-18-18zM320.4 150.5c-9.9 0-18 8.1-18 18v63c0 9.9 8.1 18 18 18s18-8.1 18-18v-63c0-9.9-8.1-18-18-18zM320.4 285c-9.9 0-18 8.1-18 18v91.3c0 9.9 8.1 18 18 18s18-8.1 18-18V303c0-9.9-8-18-18-18z"/>
</svg>
